<svg xmlns="http://www.w3.org/2000/svg" version="1.1" xmlns:xlink="http://www.w3.org/1999/xlink" width="512"
  height="512" x="0" y="0" viewBox="0 0 512 512" style="enable-background:new 0 0 512 512" xml:space="preserve"
  class="">
  <g>
    <path fill="#0a617d" d="M161 160H91V15c0-8.284 6.716-15 15-15h40c8.284 0 15 6.716 15 15z" opacity="1"
      data-original="#0a617d" class=""></path>
    <path fill="#05303d" d="M421 160h-70V15c0-8.284 6.716-15 15-15h40c8.284 0 15 6.716 15 15z" opacity="1"
      data-original="#05303d"></path>
    <path fill="#0d8ebc"
      d="M466 474H46c-8.284 0-15-6.716-15-15V159a15 15 0 0 1 8.551-13.543l210-100a14.999 14.999 0 0 1 12.898 0l210 100A15 15 0 0 1 481 159v300c0 8.284-6.716 15-15 15z"
      opacity="1" data-original="#0d8ebc" class=""></path>
    <path fill="#0a617d"
      d="m472.449 145.457-210-100A14.988 14.988 0 0 0 256 44v430h210c8.284 0 15-6.716 15-15V159a15 15 0 0 0-8.551-13.543z"
      opacity="1" data-original="#0a617d" class=""></path>
    <path fill="#e2dff4"
      d="M421 368v-37l-10-18 10-19v-37l-165-20-165 20v37l10 19-10 18v37l10 19-10 18v67h330v-67l-10-19z" opacity="1"
      data-original="#e2dff4" class=""></path>
    <path fill="#bebcdd" d="M421 472v-67l-10-19 10-18v-37l-10-18 10-19v-37l-165-20v235z" opacity="1"
      data-original="#bebcdd" class=""></path>
    <g fill="#f6f9f9">
      <path d="M421 257v-22c0-8.284-6.716-15-15-15H106c-8.284 0-15 6.716-15 15v22zM91 294h330v37H91zM91 368h330v37H91z"
        fill="#f6f9f9" opacity="1" data-original="#f6f9f9" class=""></path>
    </g>
    <path fill="#e2dff4" d="M406 220H256v37h165v-22c0-8.284-6.716-15-15-15zM256 294h165v37H256zM256 368h165v37H256z"
      opacity="1" data-original="#e2dff4" class=""></path>
    <path fill="#0d8ebc" d="M321 454H191V319c0-8.284 6.716-15 15-15h100c8.284 0 15 6.716 15 15z" opacity="1"
      data-original="#0d8ebc" class=""></path>
    <path fill="#0a617d" d="M306 304h-50v150h65V319c0-8.284-6.716-15-15-15z" opacity="1" data-original="#0a617d"
      class=""></path>
    <path fill="#ffe278" d="M221 334h70v120h-70z" opacity="1" data-original="#ffe278" class=""></path>
    <path fill="#ffc178" d="M256 334h35v120h-35z" opacity="1" data-original="#ffc178"></path>
    <path fill="#f6f9f9"
      d="M497 512H15c-8.284 0-15-6.716-15-15v-40c0-8.284 6.716-15 15-15h482c8.284 0 15 6.716 15 15v40c0 8.284-6.716 15-15 15z"
      opacity="1" data-original="#f6f9f9" class=""></path>
    <path fill="#e2dff4" d="M497 442H256v70h241c8.284 0 15-6.716 15-15v-40c0-8.284-6.716-15-15-15z" opacity="1"
      data-original="#e2dff4" class=""></path>
    <path fill="#f6f9f9"
      d="M296 152h-80c-8.284 0-15-6.716-15-15s6.716-15 15-15h80c8.284 0 15 6.716 15 15s-6.716 15-15 15z" opacity="1"
      data-original="#f6f9f9" class=""></path>
    <path fill="#e2dff4" d="M296 122h-40v30h40c8.284 0 15-6.716 15-15s-6.716-15-15-15z" opacity="1"
      data-original="#e2dff4" class=""></path>
  </g>
</svg>